<svg xmlns="http://www.w3.org/2000/svg" class="icon icon-tabler icon-tabler-hourglass" width="250px" height="250px" viewBox="0 0 24 24" stroke-width="1.18" stroke="rgba(251, 250, 250, 1)" fill="none" stroke-linecap="round" stroke-linejoin="round"><g transform="translate(0.24, 0.24) scale(0.98)"><path stroke="none" d="M0 0h24v24H0z" fill="none"/><path d="M6.5 7h11"/><path d="M6.5 17h11"/><path d="M6 20v-2a6 6 0 1 1 12 0v2a1 1 0 0 1 -1 1h-10a1 1 0 0 1 -1 -1z"/><path d="M6 4v2a6 6 0 1 0 12 0v-2a1 1 0 0 0 -1 -1h-10a1 1 0 0 0 -1 1z"/></g>
  
  
  
  
  
</svg>